<svg xmlns="http://www.w3.org/2000/svg" viewBox="0 0 24 24" fill="none">
  <path fill="#5b21b6" d="M19.5 5.5c-.8 0-1.5.4-2 .9l-.6-.8a1.6 1.6 0 0 0-1.3-.7h-1.2c-.7 0-1.4.4-1.8 1l-1 1.3-1.7-.8a1.5 1.5 0 0 0-1.4.1l-2 1.1a1.7 1.7 0 0 0-.7 2.2l.6 2.4-2.1 1.1a2.4 2.4 0 0 0-1.6 2.8l.2 2.2c.1 1.1.9 2 2 2.1l2.9.4-.7 2.2a1.6 1.6 0 0 0 .3 1.5l1.4 1.4c.7.7 1.8.9 2.7.6l2.2-.7.4 1.6c.2.8.9 1.4 1.7 1.5l2.4.5c1 .2 2-.1 2.7-1l1.6-1.9 2.1.7c.8.3 1.7 0 2.4-.7l1.7-1.4c.7-.6 1-1.5.8-2.3l-.5-2.1 1.9-.6c.8-.3 1.4-.9 1.6-1.7l.6-2.4c.3-.9 0-1.9-.7-2.6l-1.8-1.9 1.1-1.8c.5-.8.6-1.8.1-2.7l-1.2-2.3a1.7 1.7 0 0 0-1.7-1.1h-2l.9-1.2c.6-.9.7-1.9.3-2.8L19.5 5.5z"/>
  <path fill="#7c3aed" d="m16.8 7.2-3.1-.5-1.3 1.6c-.4.5-1 .8-1.6.7l-1.9-.2.6 2.4 2.5.8-.8 2.1 2.2.7 1.1-1.7 2.4.8-1-1.7 1.9-.6-.3-1.4 1.6-.6-1-1.6 1.3-1-1.2-2.1h-2l.8-1.1z"/>
  <circle fill="#1e1b2e" cx="18.2" cy="6.2" r="1.3"/>
  <path fill="#2d1b4e" d="M5.5 16.5c-.8 1.5-.5 3.3.6 4.6l1.3 1.8c.4.6.3 1.5-.3 1.9l-.8.5c-.9.6-2 .5-2.7-.4l-1.1-1.1c-.9-.9-1.2-2.3-.7-3.6l.8-1.9c.5-1.2 1.7-1.9 3-1.8l.8 1.9zM9 18.5c0 1.6-.8 3.1-2 3.9l-1.3.7c-.6.3-1.3.1-1.7-.4l-.5-.7c-.4-.6-.3-1.3.3-1.7l1.4-1.1c.6-.5 1.4-.6 2.1-.3l1.8.8v-1.2zM15 19c.3 1.4-.3 2.8-1.4 3.7l-1.3 1c-.5.4-1.2.3-1.6-.3l-.4-.6c-.4-.6-.2-1.4.4-1.8l1.5-1c.7-.5 1.5-.5 2.2 0l.8.6v-1.2zM19 17.5c.5 1.2.3 2.7-.7 3.6l-1.1 1.1c-.5.5-1.3.4-1.7-.2l-.6-.6c-.4-.5-.3-1.3.3-1.8l1.2-1.2c.6-.6 1.4-.7 2.1-.4l.5 1.5z"/>
</svg>
